<svg xmlns="http://www.w3.org/2000/svg" viewBox="0 0 20 20" xml:space="preserve">
  <linearGradient id="a" gradientUnits="userSpaceOnUse" x1="19.35" y1="10" x2=".13" y2="10">
    <stop offset="0" style="stop-color:#49e4f2"/>
    <stop offset="1" style="stop-color:#ca80ff"/>
  </linearGradient>
  <path fill="none" stroke="url(#a)" stroke-width="1.75" stroke-linecap="round" stroke-linejoin="round" stroke-miterlimit="10" d="M13.95 1.53A14.71 14.71 0 0 0 10 1a9 9 0 1 0 0 18 3 3 0 1 0 0-6 3 3 0 1 1 0-6 9 9 0 0 1 8.48 6"/>
  <linearGradient id="b" gradientUnits="userSpaceOnUse" x1="3.13" y1="10" x2="19.58" y2="10">
    <stop offset="0" style="stop-color:#49e4f2"/>
    <stop offset="1" style="stop-color:#ca80ff"/>
  </linearGradient>
  <path fill="none" stroke="url(#b)" stroke-width="1.75" stroke-linecap="round" stroke-linejoin="round" stroke-miterlimit="10" d="M18.7 7.76A11.95 11.95 0 0 0 10 4a6 6 0 0 0 0 12"/>
  <linearGradient id="c" gradientUnits="userSpaceOnUse" x1="13" y1="16.88" x2="13" y2="9.13">
    <stop offset="0" style="stop-color:#49e4f2"/>
    <stop offset="1" style="stop-color:#ca80ff"/>
  </linearGradient>
  <path fill="none" stroke="url(#c)" stroke-width="1.75" stroke-linecap="round" stroke-linejoin="round" stroke-miterlimit="10" d="M10 10a6 6 0 0 1 6 6"/>
</svg>
