<svg xmlns="http://www.w3.org/2000/svg" viewBox="0 0 100 200" xml:space="preserve">
  <path id="CarOutline" class="carOutline" d="M87.413 115.118V70.251c0-5.852 2-12.68 2-21.458s-3-32.187-5-37.064S70.413 1 51.413 1H49C30 1 18 6.852 16 11.73s-5 28.285-5 37.063 2 15.606 2 21.458v44.867c0 10.73-4 16.582-4 19.508v28.285c0 1.95 7 21.458 9 25.36S26 199 50 199h.413c24 0 30-6.828 32-10.73s9-23.408 9-25.359v-28.285c0-2.926-4-8.779-4-19.508z"/>
  <path id="Windscreen" class="window" d="M80.413 76c-1-1-11-8-29-8H49c-18 0-28 7-29 8s1 9 3 14 4 5 9 4 8-2 18-2h.413c10 0 13 1 18 2s7 1 9-4 4-13 3-14z"/>
  <path id="SideWindows" class="window" d="M17 87s7 9.486 7 15.522 1 36.218-1 44.841-4-9.485-5-17.246S17 87 17 87zM83.25 87s-7 9.486-7 15.522-1 36.218 1 44.841 4-9.485 5-17.246 1-43.117 1-43.117z"/>
  <path id="RearWindow" class="window" d="M72.767 141c0-2 0-4-3.728-4H31.374c-3.728 0-3.728 2-3.728 4s-.932 21 .932 23 3.728 5 21.436 5c.068 0 .125-.01.193-.011.067 0 .124.011.192.011 17.708 0 19.572-3 21.436-5s.932-21 .932-23z"/>
</svg>
